# xmcd
#
# Track frame offsets:
#	150
#	13429
#	28909
#	40714
#	54139
#	67870
#	76341
#	84206
#	98407
#	111458
#	125572
#	134852
#	145073
#	170360
#	184000
#	197772
#	212570
#	222319
#	240274
#	254640
#
# Disc length: 3611 seconds
#
# Revision: 2
# Processed by: cddbd v1.5.2PL0 Copyright (c) Steve Scherf et al.
# Submitted via: audiograbber 1.83.01
#
DISCID=180e1914
DTITLE=Leadbelly - Take This Hammer
DYEAR=2004
DGENRE=Blues
TTITLE0=Can't You Line 'Em
TTITLE1=Fannin' Street
TTITLE2=Rock Island Line
TTITLE3=C.C. Rider
TTITLE4=New York City
TTITLE5=Goodnight Irene
TTITLE6=Pick A Bale Of Cotton
TTITLE7=TB Blues
TTITLE8=Good Morning Blues
TTITLE9=Alberta
TTITLE10=Midnight Special
TTITLE11=Take This Hammer
TTITLE12=Bourgeois Blues
TTITLE13=Salty Dog
TTITLE14=Matchbox Blues
TTITLE15=Tell Me Baby
TTITLE16=Black Girl
TTITLE17=Somebody's Diggin' My Potatoes
TTITLE18=Tight Like That
TTITLE19=Leaving Blues
EXTD=
EXTT0=
EXTT1=
EXTT2=
EXTT3=
EXTT4=
EXTT5=
EXTT6=
EXTT7=
EXTT8=
EXTT9=
EXTT10=
EXTT11=
EXTT12=
EXTT13=
EXTT14=
EXTT15=
EXTT16=
EXTT17=
EXTT18=
EXTT19=
PLAYORDER=
